<?xml version="1.0" standalone="no"?>
<!DOCTYPE svg PUBLIC "-//W3C//DTD SVG 20010904//EN"
 "http://www.w3.org/TR/2001/REC-SVG-20010904/DTD/svg10.dtd">
<svg version="1.0" xmlns="http://www.w3.org/2000/svg"
 width="700.000000pt" height="700.000000pt" viewBox="0 0 700.000000 700.000000"
 preserveAspectRatio="xMidYMid meet">
<metadata>
Created by potrace 1.11, written by Peter Selinger 2001-2013
</metadata>
<g transform="translate(0.000000,700.000000) scale(0.100000,-0.100000)"
fill="#000000" stroke="none">
<path d="M988 6107 c0 -1 -2 -1103 -3 -2449 l-1 -2448 35 -1 c20 -1 44 -1 54
0 14 2 17 -6 17 -54 l0 -57 53 4 52 4 -1 -53 c-1 -58 -5 -55 71 -56 l40 0 -3
-53 -4 -53 676 0 c372 1 677 4 677 7 1 4 3 288 4 632 1 365 5 632 11 641 7 13
116 136 194 219 8 8 53 58 100 110 47 51 97 106 111 121 l27 27 85 -126 c154
-227 405 -597 414 -607 4 -5 64 -93 132 -195 69 -102 127 -187 130 -190 3 -3
11 -13 16 -22 6 -10 53 -80 105 -158 61 -89 101 -140 112 -140 10 0 33 -23 54
-54 22 -34 42 -53 52 -52 11 2 30 -18 55 -56 28 -43 42 -57 50 -49 9 7 23 -6
50 -49 l38 -59 810 0 c445 0 809 2 809 5 0 3 -33 54 -73 112 -40 59 -108 159
-152 222 -43 63 -106 156 -140 205 -34 50 -93 135 -130 190 -117 172 -150 220
-155 225 -3 3 -50 70 -103 150 -54 80 -126 186 -161 235 -153 222 -232 336
-241 353 -5 9 -40 60 -76 112 -76 109 -151 219 -281 410 -111 164 -132 194
-138 200 -3 3 -48 68 -100 145 -52 77 -100 146 -106 153 -7 6 -16 21 -19 32
-3 11 -10 20 -15 20 -4 0 -10 8 -13 19 -3 12 8 33 30 57 19 22 58 66 86 98 29
33 57 64 62 70 19 21 231 261 261 295 16 19 34 39 39 45 6 6 46 52 90 101 44
50 82 92 85 95 3 3 32 37 65 75 33 39 67 77 75 85 8 8 78 87 154 175 77 88
144 165 150 170 6 6 40 44 76 85 36 41 72 81 80 90 8 9 29 32 45 51 49 55 257
291 286 324 15 17 79 90 143 163 l117 132 -43 1 c-24 1 -67 1 -96 0 l-54 0 34
42 c56 68 57 65 -38 65 -47 0 -88 3 -92 6 -3 4 14 27 38 51 27 27 38 45 30 46
-8 0 -52 1 -97 1 -46 1 -83 2 -83 4 0 1 18 22 40 46 22 23 40 46 40 50 0 4
-359 7 -797 7 l-798 0 -56 -67 c-120 -142 -312 -368 -338 -397 -15 -16 -89
-104 -166 -195 -77 -91 -142 -167 -145 -170 -5 -4 -87 -101 -132 -155 -9 -11
-26 -31 -38 -45 -12 -14 -38 -45 -58 -69 -21 -24 -42 -49 -47 -55 -6 -6 -35
-40 -65 -76 -30 -36 -57 -67 -60 -70 -3 -3 -55 -63 -115 -135 -60 -71 -121
-142 -135 -157 l-25 -27 1 650 c0 583 -1 649 -15 650 -9 1 -33 1 -53 0 l-38
-1 0 55 0 55 -60 -3 c-33 -2 -56 -1 -51 2 5 3 8 29 8 56 l0 50 -51 0 -51 0 -3
52 -3 52 -675 0 c-370 0 -675 -1 -676 -2z"/>
</g>
</svg>
